<svg id="secondary_btn" data-name="secondary btn" xmlns="http://www.w3.org/2000/svg">
  <defs>
    <style>
      .cls-1 {
        fill: #ebd9b3;
      }

      .cls-2 {
        fill: #725a37;
      }
    </style>
  </defs>
  <title>button_secondary</title>
  <g id="outer_border" data-name="outer border">
    <path class="cls-1" d="M4.58,39.38a4.63,4.63,0,0,0-4-4V4.58a4.63,4.63,0,0,0,4-4H55.42a4.63,4.63,0,0,0,4,4V35.42a4.63,4.63,0,0,0-4,4Z"/>
    <path class="cls-2" d="M54.9,1.25A5.27,5.27,0,0,0,58.75,5.1V34.9a5.27,5.27,0,0,0-3.85,3.85H5.1A5.27,5.27,0,0,0,1.25,34.9V5.1A5.27,5.27,0,0,0,5.1,1.25H54.9M56,0H4A4,4,0,0,1,0,4V36a4,4,0,0,1,4,4H56a4,4,0,0,1,4-4V4a4,4,0,0,1-4-4Z"/>
  </g>
  <g id="inner_border" data-name="inner border">
    <path class="cls-2" d="M52.29,4.75a3.87,3.87,0,0,0,3,3.12V32.13a3.87,3.87,0,0,0-3,3.12H7.71a3.87,3.87,0,0,0-3-3.12V7.87a3.87,3.87,0,0,0,3-3.12H52.29M53,4H7A3.12,3.12,0,0,1,4,7.2V32.8A3.12,3.12,0,0,1,7,36H53a3.12,3.12,0,0,1,3-3.2V7.2A3.12,3.12,0,0,1,53,4Z"/>
  </g>
</svg>
